<svg width="25" height="25" viewBox="0 0 25 25" fill="none" xmlns="http://www.w3.org/2000/svg">
<path d="M4.5 19.5V10.5C4.5 10.1833 4.571 9.88333 4.713 9.6C4.855 9.31667 5.05067 9.08333 5.3 8.9L11.3 4.4C11.65 4.13333 12.05 4 12.5 4C12.95 4 13.35 4.13333 13.7 4.4L19.7 8.9C19.95 9.08333 20.146 9.31667 20.288 9.6C20.43 9.88333 20.5007 10.1833 20.5 10.5V19.5C20.5 20.05 20.304 20.521 19.912 20.913C19.52 21.305 19.0493 21.5007 18.5 21.5H15.5C15.2167 21.5 14.9793 21.404 14.788 21.212C14.5967 21.02 14.5007 20.7827 14.5 20.5V15.5C14.5 15.2167 14.404 14.9793 14.212 14.788C14.02 14.5967 13.7827 14.5007 13.5 14.5H11.5C11.2167 14.5 10.9793 14.596 10.788 14.788C10.5967 14.98 10.5007 15.2173 10.5 15.5V20.5C10.5 20.7833 10.404 21.021 10.212 21.213C10.02 21.405 9.78267 21.5007 9.5 21.5H6.5C5.95 21.5 5.47933 21.3043 5.088 20.913C4.69667 20.5217 4.50067 20.0507 4.5 19.5Z" fill="#7A7571"/>
</svg>
