<svg width="25" height="24" viewBox="0 0 25 24" fill="none" xmlns="http://www.w3.org/2000/svg">
<path d="M7.35714 0C7.47321 0 7.57366 0.0424107 7.65848 0.127232C7.7433 0.212054 7.78571 0.3125 7.78571 0.428571V20.1429C7.78571 20.3214 7.70982 20.4464 7.55804 20.5179L1.12946 23.9464C1.06696 23.9821 1 24 0.928571 24C0.8125 24 0.712054 23.9576 0.627232 23.8728C0.542411 23.7879 0.5 23.6875 0.5 23.5714V3.85714C0.5 3.67857 0.575893 3.55357 0.727679 3.48214L7.15625 0.0535714C7.21875 0.0178571 7.28571 0 7.35714 0ZM24.0714 0C24.1875 0 24.2879 0.0424107 24.3728 0.127232C24.4576 0.212054 24.5 0.3125 24.5 0.428571V20.1429C24.5 20.3214 24.4241 20.4464 24.2723 20.5179L17.8438 23.9464C17.7812 23.9821 17.7143 24 17.6429 24C17.5268 24 17.4263 23.9576 17.3415 23.8728C17.2567 23.7879 17.2143 23.6875 17.2143 23.5714V3.85714C17.2143 3.67857 17.2902 3.55357 17.442 3.48214L23.8705 0.0535714C23.933 0.0178571 24 0 24.0714 0ZM9.07143 0C9.14286 0 9.20536 0.0133929 9.25893 0.0401786L16.1161 3.46875C16.2768 3.55804 16.3571 3.6875 16.3571 3.85714V23.5714C16.3571 23.6875 16.3147 23.7879 16.2299 23.8728C16.1451 23.9576 16.0446 24 15.9286 24C15.8571 24 15.7946 23.9866 15.7411 23.9598L8.88393 20.5312C8.72321 20.442 8.64286 20.3125 8.64286 20.1429V0.428571C8.64286 0.3125 8.68527 0.212054 8.77009 0.127232C8.85491 0.0424107 8.95536 0 9.07143 0Z" fill="#7A7571"/>
</svg>
