<svg width="25" height="24" viewBox="0 0 25 24" fill="none" xmlns="http://www.w3.org/2000/svg">
<path d="M14.5 15C14.7833 15 15.0293 14.896 15.238 14.688C15.4467 14.48 15.5507 14.234 15.55 13.95C15.5493 13.666 15.4453 13.4203 15.238 13.213C15.0307 13.0057 14.7847 12.9013 14.5 12.9C14.2153 12.8987 13.9697 13.003 13.763 13.213C13.5563 13.423 13.452 13.6687 13.45 13.95C13.448 14.2313 13.5523 14.4773 13.763 14.688C13.9737 14.8987 14.2193 15.0027 14.5 15ZM14.5 11.8C14.6833 11.8 14.8543 11.7333 15.013 11.6C15.1717 11.4667 15.2673 11.2917 15.3 11.075C15.3333 10.875 15.404 10.6917 15.512 10.525C15.62 10.3583 15.816 10.1333 16.1 9.85C16.6 9.35 16.9333 8.94567 17.1 8.637C17.2667 8.32833 17.35 7.966 17.35 7.55C17.35 6.8 17.0873 6.18733 16.562 5.712C16.0367 5.23667 15.3493 4.99933 14.5 5C13.95 5 13.45 5.125 13 5.375C12.55 5.625 12.1917 5.98333 11.925 6.45C11.825 6.61667 11.8167 6.79167 11.9 6.975C11.9833 7.15833 12.125 7.29167 12.325 7.375C12.5083 7.45833 12.6877 7.46667 12.863 7.4C13.0383 7.33333 13.184 7.21667 13.3 7.05C13.45 6.83333 13.625 6.671 13.825 6.563C14.025 6.455 14.25 6.40067 14.5 6.4C14.9 6.4 15.225 6.51267 15.475 6.738C15.725 6.96333 15.85 7.26733 15.85 7.65C15.85 7.88333 15.7833 8.10433 15.65 8.313C15.5167 8.52167 15.2833 8.784 14.95 9.1C14.4667 9.51667 14.1583 9.83767 14.025 10.063C13.8917 10.2883 13.8083 10.6173 13.775 11.05C13.7583 11.25 13.821 11.425 13.963 11.575C14.105 11.725 14.284 11.8 14.5 11.8ZM8.5 18C7.95 18 7.47933 17.8043 7.088 17.413C6.69667 17.0217 6.50067 16.5507 6.5 16V4C6.5 3.45 6.696 2.97933 7.088 2.588C7.48 2.19667 7.95067 2.00067 8.5 2H20.5C21.05 2 21.521 2.196 21.913 2.588C22.305 2.98 22.5007 3.45067 22.5 4V16C22.5 16.55 22.3043 17.021 21.913 17.413C21.5217 17.805 21.0507 18.0007 20.5 18H8.5ZM4.5 22C3.95 22 3.47933 21.8043 3.088 21.413C2.69667 21.0217 2.50067 20.5507 2.5 20V7C2.5 6.71667 2.596 6.47933 2.788 6.288C2.98 6.09667 3.21733 6.00067 3.5 6C3.78267 5.99933 4.02033 6.09533 4.213 6.288C4.40567 6.48067 4.50133 6.718 4.5 7V20H17.5C17.7833 20 18.021 20.096 18.213 20.288C18.405 20.48 18.5007 20.7173 18.5 21C18.4993 21.2827 18.4033 21.5203 18.212 21.713C18.0207 21.9057 17.7833 22.0013 17.5 22H4.5Z" fill="#7A7571"/>
</svg>
