<svg width="31" height="24" viewBox="0 0 31 24" fill="none" xmlns="http://www.w3.org/2000/svg">
<path d="M9.5 12C12.4016 12 14.75 9.65156 14.75 6.75C14.75 3.84844 12.4016 1.5 9.5 1.5C6.59844 1.5 4.25 3.84844 4.25 6.75C4.25 9.65156 6.59844 12 9.5 12ZM13.1 13.5H12.7109C11.7359 13.9688 10.6531 14.25 9.5 14.25C8.34688 14.25 7.26875 13.9688 6.28906 13.5H5.9C2.91875 13.5 0.5 15.9188 0.5 18.9V20.25C0.5 21.4922 1.50781 22.5 2.75 22.5H16.25C17.4922 22.5 18.5 21.4922 18.5 20.25V18.9C18.5 15.9188 16.0812 13.5 13.1 13.5ZM23 12C25.4844 12 27.5 9.98438 27.5 7.5C27.5 5.01562 25.4844 3 23 3C20.5156 3 18.5 5.01562 18.5 7.5C18.5 9.98438 20.5156 12 23 12ZM25.25 13.5H25.0719C24.4203 13.725 23.7313 13.875 23 13.875C22.2687 13.875 21.5797 13.725 20.9281 13.5H20.75C19.7938 13.5 18.9125 13.7766 18.1391 14.2219C19.2828 15.4547 20 17.0906 20 18.9V20.7C20 20.8031 19.9766 20.9016 19.9719 21H28.25C29.4922 21 30.5 19.9922 30.5 18.75C30.5 15.8484 28.1516 13.5 25.25 13.5Z" fill="#7A7571"/>
</svg>
